<?xml version="1.0" standalone="no"?>
<!DOCTYPE svg PUBLIC "-//W3C//DTD SVG 20010904//EN"
 "http://www.w3.org/TR/2001/REC-SVG-20010904/DTD/svg10.dtd">
<svg version="1.0" xmlns="http://www.w3.org/2000/svg"
 width="45.000000pt" height="45.000000pt" viewBox="0 0 45.000000 45.000000"
 preserveAspectRatio="xMidYMid meet">

<g transform="translate(0.000000,45.000000) scale(0.100000,-0.100000)"
fill="#000000" stroke="none">
<path d="M0 375 c0 -18 204 -195 225 -195 20 0 225 178 225 196 0 12 -37 14
-225 14 -191 0 -225 -2 -225 -15z"/>
<path d="M0 195 l0 -135 225 0 225 0 0 135 c0 74 -3 135 -6 135 -4 0 -41 -31
-83 -68 -104 -94 -126 -107 -154 -95 -13 6 -62 45 -110 87 -48 42 -90 76 -92
76 -3 0 -5 -61 -5 -135z"/>
</g>
</svg>
